<svg width="1075" height="515" viewBox="0 0 1075 515" fill="none" xmlns="http://www.w3.org/2000/svg">
<path fill-rule="evenodd" clip-rule="evenodd" d="M921.776 4.22973C920.281 5.79725 918.918 10.8428 918.6 15.9774C917.15 39.4651 914.228 119.131 914.692 122.526C915.495 128.377 920.591 129.832 924.728 125.387C927.806 122.081 928.362 118.833 929.24 98.9926C929.792 86.5485 930.94 76.4179 931.791 76.4793C932.643 76.539 938.29 81.9709 944.344 88.5485C961.939 107.669 966.248 110.924 974.94 111.646C986.984 112.646 1001.62 106.306 1002.07 99.8983C1002.18 98.3489 1000.45 97.2508 997.589 97.0505C984.398 96.1264 950.403 79.0652 941.646 68.9714C932.472 58.3997 930.832 51.4184 932.467 29.9174C933.582 15.2447 933.357 9.30942 931.561 6.09622C928.746 1.05597 925.413 0.419923 921.776 4.22973ZM744.775 3.52973C743.445 5.63204 741.97 12.1114 741.493 17.9301L740.627 28.5096L734.292 28.0658C726.569 27.5248 718.779 30.7813 716.993 35.297C714.742 40.9914 718.218 42.9285 728.28 41.5869C733.237 40.9268 737.645 41.0547 738.073 41.8703C741.441 48.2935 711.408 71.6836 700.75 70.937C694.403 70.4924 694.717 81.0357 701.172 85.1003C704.74 87.347 705.898 87.2384 710.292 84.2495C713.059 82.3649 716.058 80.8761 716.953 80.9388C719.817 81.1394 735.06 69.2013 740.3 62.6541C743.084 59.1746 746.115 56.3811 747.036 56.4457C747.956 56.5101 754.615 63.3607 761.835 71.6692C769.486 80.4726 776.431 86.8786 778.483 87.0223C784.656 87.4547 801.042 83.2186 803.607 80.5272C805.678 78.3563 805.563 77.4917 802.902 75.2411C801.152 73.7601 798.246 72.4464 796.444 72.3202C789.19 71.812 766.595 59.1972 759.797 51.8599C755.95 47.7067 752.854 43.5424 752.92 42.6071C752.985 41.6718 755.619 41.0122 758.775 41.1428C779.871 42.0123 784.007 40.9383 783.256 34.7871C782.902 31.9072 780.988 31.3085 768.8 30.2632L754.751 29.0592L754.752 16.3549C754.753 7.75059 753.939 3.05093 752.228 1.79436C748.505 -0.940285 747.441 -0.692033 744.775 3.52973ZM766.819 7.16473C763.366 11.718 762.899 22.3166 766.093 23.6204C767.222 24.0825 770.457 21.4433 773.281 17.7557C777.51 12.2335 778.114 10.3801 776.709 7.24218C774.441 2.17817 770.627 2.14859 766.819 7.16473ZM870.822 16.4752C869.193 17.8951 867.724 21.0038 867.558 23.3844C867.157 29.1304 873.321 31.903 887.156 32.2C901.111 32.5001 902.433 29.101 891.652 20.6565C883.191 14.0308 875.42 12.4721 870.822 16.4752ZM677.008 14.2517C670.086 20.3921 660.163 27.0955 654.236 29.6348C648.457 32.1099 643.174 35.5313 642.494 37.2375C640.912 41.2125 643.972 45.5162 647.938 44.8967C651.299 44.3696 663.084 53.1947 665.76 58.2413C667.988 62.4459 663.621 65.2753 648.971 69.124C635.899 72.5584 632.757 75.0604 635.059 80.2048C637.299 85.2083 644.24 87.0086 651.638 84.5032C673.323 77.1608 715.872 40.7851 716.703 28.8784C716.812 27.3113 711.626 21.9986 705.138 17.0344C698.668 12.0822 693.419 7.39459 693.473 6.61634C693.8 1.92568 687.727 4.74192 677.008 14.2517ZM966.314 31.6961C962.911 34.7561 955.301 38.7984 949.408 40.6785C939.434 43.8599 936.248 46.8146 939.932 49.4685C942.299 51.1718 966.04 47.4137 973.813 44.1029C984.291 39.6409 986.262 36.9345 983.124 31.3184C979.543 24.9068 973.724 25.0365 966.314 31.6961ZM538.081 13.7025C529.314 13.7675 511.818 13.5865 499.202 13.2986C473.962 12.7204 468.113 14.3111 467.584 21.8924C467.152 28.0795 470.563 29.0562 487.864 27.7038C496.353 27.0394 503.554 27.2371 504.315 28.154C505.058 29.0501 505.658 33.7738 505.647 38.6498L505.626 47.5152L488.191 48.1718C470.655 48.8321 467.474 50.0918 466.959 56.587C466.629 60.7526 470.786 62.0901 480.412 60.9129C485.042 60.347 492.227 59.7438 496.376 59.5716C503.735 59.2678 503.912 59.3884 503.559 64.4567C502.462 80.1663 480.301 98.4614 450.263 108.457C438.151 112.487 436.535 114.488 440.156 120.971C445.242 130.075 458.049 126.686 482.724 109.704C492.029 103.301 506.866 88.9763 512.336 81.1116C512.977 80.19 527.171 89.1946 533.331 94.4301C536.548 97.163 544.966 104.837 552.04 111.483C569.308 127.706 570.95 128.344 584.827 124.241C593.948 121.542 596.252 120.102 596.908 116.697C597.661 112.779 596.662 112.133 582.527 107.403C564.575 101.391 545.047 90.0087 529.101 76.2583C518.436 67.0629 514.474 59.7842 520.245 59.9898C533.888 60.4756 551.449 59.739 554.087 58.5725C556.089 57.686 557.285 55.5743 557.116 53.2181C556.848 49.4841 556.086 49.2836 537.887 48.179L518.937 47.0289L519.589 37.6917C519.947 32.5563 521.145 27.8787 522.249 27.2982C523.354 26.7159 531.072 26.2918 539.398 26.3537C551.09 26.4421 555.36 25.7534 558.144 23.3292C566.043 16.4504 559.974 13.539 538.081 13.7025ZM697.749 25.7809C702.087 30.3036 700.582 40.7781 695.644 40.4322C692.644 40.222 682.853 25.7163 684.326 23.6649C686.22 21.0258 694.429 22.319 697.749 25.7809ZM318.01 6.26321C316.079 8.3092 314.961 14.6699 313.925 29.5131L312.498 49.9469L293.048 49.6272C268.857 49.2289 261.295 50.9674 257.945 57.6967C256.567 60.4677 255.817 63.9707 256.279 65.4839C257.337 68.9504 265.721 69.6477 273.635 66.9266C280.504 64.5633 300.379 62.04 301.544 63.3825C304.485 66.7717 279.703 92.8562 269.041 97.5943C257.803 102.588 242.683 110.563 241.453 112.145C239.483 114.68 242.591 120.32 247.397 122.934C250.875 124.825 253.068 124.652 259.747 121.96C264.215 120.161 267.921 117.952 267.983 117.054C268.046 116.154 271.328 113.369 275.277 110.867C283.784 105.472 298.472 90.3848 308.929 76.2974L316.439 66.1832L317.272 72.1291C317.73 75.3994 317.598 79.5806 316.979 81.4188C316.358 83.2568 316.037 89.8082 316.264 95.9758C317.035 116.885 324.597 121.585 368.164 128.237C380.949 130.19 381.514 130.109 386.352 125.668C389.1 123.147 392.943 117.753 394.895 113.681C400.214 102.575 397.555 101.106 383.014 107.123C372.412 111.509 369.501 111.929 356.156 110.994C345.174 110.225 339.476 108.953 334.748 106.214C328.464 102.574 328.31 102.22 328.541 91.858C328.673 86.0152 329.717 76.9112 330.863 71.627L332.948 62.0196L372.673 64.6108L378.666 59.3896C388.01 51.2535 385.259 50.1263 355.672 49.9707C341.667 49.8958 329.66 49.2729 328.99 48.584C327.898 47.4665 328.613 21.8028 329.855 17.4689C331.533 11.6173 329.444 6.8744 324.304 4.86509C321.908 3.92943 319.763 4.40516 318.01 6.26321ZM862.706 47.9745C861.439 48.4 859.095 50.8976 857.497 53.5255C852.873 61.1321 856.024 62.7006 873.661 61.5685C886.38 60.7518 888.677 61.0209 890.905 63.5887C893.24 66.2793 893.145 67.1682 889.854 73.2934C884.073 84.0642 866.594 97.2466 855.115 99.4962C847.625 100.965 845.05 104.379 847.428 109.694C849.31 113.895 855.814 116.309 862.194 115.172C868.987 113.961 890.966 93.6638 898.396 81.7406C901.927 76.072 905.547 68.2834 906.441 64.4322C907.859 58.323 907.557 57.057 904.086 54.5209C900.081 51.5927 867.358 46.417 862.706 47.9745ZM679.245 40.6134C685.976 46.5132 686.66 49.7887 681.83 52.9562C677.245 55.9619 677.102 55.888 671.288 47.5041C662.858 35.3496 668.081 30.828 679.245 40.6134ZM359.835 23.0093C357.092 24.954 351.75 28.1354 347.963 30.0815C338.196 35.097 338.348 39.2714 348.264 38.4427C360.31 37.4334 372.526 33.8185 373.905 30.8542C377.82 22.4408 368.205 17.0785 359.835 23.0093ZM275.665 23.1586C271.695 26.9788 272.36 33.1842 276.912 34.8224C278.526 35.4019 284.764 36.7575 290.773 37.831C304.128 40.2189 305.361 37.8013 295.464 28.6261C286.81 20.6019 280.214 18.7796 275.665 23.1586ZM154.659 13.8984C153.704 14.7093 136.48 14.9019 106.972 14.4292C90.4388 14.1666 83.9923 14.7382 81.3911 16.7018C78.1301 19.1636 77.7996 21.8182 76.1334 59.1034C73.7513 112.35 74.3447 115.566 86.2831 114.047C104.652 111.711 113.962 111.441 134.392 112.654C154.378 113.841 157.438 113.625 160.188 110.824C162.835 108.129 163.748 102.082 166.187 71.113C167.77 51.02 169.403 31.5583 169.819 27.8668C170.728 19.7589 166.861 14.0314 160.162 13.5621C157.567 13.3803 155.09 13.5314 154.659 13.8984ZM153.292 29.4844C155.625 32.8506 155.316 53.7989 152.909 55.4338C151.034 56.7088 142.708 56.9661 104.441 56.9296L88.0603 56.9136L89.2203 45.0122C89.9123 37.914 91.3851 32.2343 92.8666 30.9442C94.2331 29.7542 99.5701 28.2625 104.725 27.6288C109.88 26.9968 115.707 26.2434 117.674 25.9556C126.257 24.7054 151.729 27.2274 153.292 29.4844ZM758.479 94.8425C757.235 95.9258 756.135 97.9945 756.034 99.4415C755.742 103.612 768.524 127.318 770.746 126.729C772.779 126.192 774.037 110.83 772.676 103.172C771.222 94.9868 763.51 90.4618 758.479 94.8425ZM725.868 94.1187C721.596 96.2259 721.253 103.654 724.861 115.845C727.898 126.105 731.455 131.3 733.496 128.455C734.134 127.567 735.305 120.368 736.098 112.459C737.353 99.9613 737.116 97.7174 734.297 95.3227C730.497 92.0932 730.09 92.0364 725.868 94.1187ZM688.509 97.6854C686.603 101.203 686.587 104.451 688.423 114.083C692.251 134.168 695.481 134.047 700.052 113.647C702.606 102.252 702.624 100.343 700.202 97.2543C696.346 92.3362 691.307 92.5223 688.509 97.6854ZM656.388 96.6466C652.03 102.504 647.292 121.916 649.579 124.552C651.753 127.058 654.163 124.786 663.155 111.751C669.865 102.022 670.274 100.244 666.738 96.1675C663.153 92.038 659.701 92.197 656.388 96.6466ZM153.151 70.3843C154.375 74.3963 150.486 96.0993 148.283 97.5588C145.377 99.4832 97.1078 100.284 92.5672 98.4812C88.5605 96.8918 87.9904 94.7629 87.3952 79.1209L87.0123 69.0604L92.9204 68.1886C97.8321 67.4633 121.533 67.3253 146.866 67.8745C150.05 67.9432 152.733 69.0143 153.151 70.3843Z" fill="black"/>
<path fill-rule="evenodd" clip-rule="evenodd" d="M414.057 248.872C393.434 268.599 388.812 274.671 390.245 280.157C393.165 291.341 401.191 293.04 446.44 292.048C508.299 290.693 521.855 282.063 505.645 254.356C495.68 237.322 489.925 232.564 482.24 235.007C473.13 237.907 472.013 244.714 479.154 253.811C482.655 258.272 484.81 263.787 483.935 266.068C482.09 270.885 465.267 274.167 442.171 274.217C417.932 274.267 417.885 268.414 442.021 255.504C448.926 251.812 452.455 247.414 453.142 241.649C454.194 232.824 449.194 224.13 443.167 224.296C441.228 224.349 428.131 235.408 414.057 248.872ZM894.698 232.201C888.649 236.446 888.308 238.827 889.995 264.901L891.812 293.021H842.847C790.512 293.021 775.825 296.074 769.286 308.312C767.394 311.853 764.249 326.058 762.301 339.885C758.1 369.623 761.133 380.612 773.54 380.612C785.575 380.612 790.958 369.798 790.958 345.616C790.958 327.673 791.898 324.019 797.251 321.15C812.499 312.976 925.135 309.094 979.843 314.859C1011.62 318.207 1014.38 320.234 1017.64 342.713C1021.13 366.745 1028.06 381.091 1035.64 379.996C1045.85 378.517 1050.62 365.956 1048.48 346.201C1045 314.227 1041.82 306.751 1029.04 300.56C1018.26 295.336 976.883 291.044 928.692 290.146L914.974 289.893L917.019 267.854C919.171 244.646 916.816 235.987 906.914 230.675C902.873 228.51 899.329 228.954 894.698 232.201ZM528.657 265.649C528.666 288.895 529.875 296.568 534.806 304.667C542.338 317.046 550.785 319.558 584.992 319.586C616.26 319.614 625.994 315.025 631.756 297.535C636.996 281.628 632.717 279.41 614.362 288.51C597.636 296.803 571.595 301.333 558.945 298.151C551.11 296.18 546.45 286.574 549.489 278.643C550.588 275.775 556.206 274.204 565.671 274.114C573.647 274.039 587.197 271.577 595.784 268.639C613.678 262.523 617.007 254.916 607.126 242.715L600.999 235.148L593.708 241.833C585.136 249.691 562.077 261.738 555.603 261.738C552.602 261.738 551.644 259.608 552.749 255.379C554.894 247.158 545.504 236.712 535.967 236.712C528.813 236.712 528.644 237.375 528.657 265.649ZM107.34 244.204C105.35 246.604 102.421 256.592 100.829 266.399C99.2328 276.206 95.4199 289.376 92.3502 295.664L86.7698 307.098L60.2261 306.773C45.6271 306.594 30.0381 305.415 25.585 304.154C19.3863 302.403 15.4328 303.632 8.74381 309.397L0 316.927L3.26022 389.516C7.21367 477.507 8.02869 479.844 33.2109 475.605C53.5215 472.186 186.69 472.051 211.681 475.427C242.316 479.562 242.516 479.199 244.951 414.498C246.073 384.676 248.015 351.601 249.264 340.996C251.375 323.077 250.982 321.156 243.743 313.905L235.948 306.097L173.071 307.852C138.486 308.815 110.191 308.719 110.191 307.633C110.191 306.548 115.805 298.242 122.669 289.173C138.015 268.896 138.711 259.02 125.564 247.94C114.531 238.639 112.327 238.186 107.34 244.204ZM956.775 255.973C946.298 264.848 937.73 273.294 937.73 274.742C937.73 280.889 983.101 272.18 993.159 264.106C1001.97 257.033 993.73 239.841 981.533 239.841C978.391 239.841 967.249 247.101 956.775 255.973ZM817.986 246.914C810.026 252.751 812.343 265.445 822.186 269.931C826.48 271.886 838.778 274.342 849.511 275.387C874.078 277.774 875.274 273.119 854.089 257.54C836.014 244.248 825.743 241.226 817.986 246.914ZM402.693 310.749C401.547 311.894 400.61 324.05 400.61 337.758C400.61 369.06 396.722 382.092 381.292 402.517C368.533 419.403 367.346 426.16 376.165 431.725C384.706 437.112 396.5 429.329 406.025 412.026C415.958 393.982 420.736 392.206 455.259 393.726L477.118 394.689L478.074 404.528C479.179 415.943 488.082 425.4 495.162 422.678C502.844 419.725 503.515 414.376 500.239 382.295C497.379 354.288 498.331 343.499 505.127 326.891C506.482 323.575 504.892 319.28 500.78 315.16C494.815 309.185 490.684 308.662 449.535 308.662C424.915 308.662 403.836 309.601 402.693 310.749ZM471.81 331.186C481.037 340.43 475.972 343.073 449.013 343.073C425.355 343.073 422.469 342.451 422.469 337.339C422.469 334.183 423.406 330.663 424.552 329.518C428.222 325.84 467.869 327.238 471.81 331.186ZM529.053 332.925C527.439 335.947 526.899 350.941 527.851 366.25C529.359 390.485 530.634 395.246 537.7 403.101C548.274 414.854 570.964 420.942 613.297 423.385C644.091 425.165 646.879 424.84 652.931 418.777C659.889 411.808 668.358 388.139 665.07 384.848C663.983 383.759 654.899 385.173 644.881 387.989C624.405 393.742 574.068 398.147 562.37 395.206C554.96 393.342 547.381 381.961 547.381 372.692C547.381 369.072 550.972 368.572 565.805 370.123C584.758 372.11 623.846 366.66 630.916 361.048C636.274 356.794 635.812 345.885 629.916 337.455C625.026 330.457 625.001 330.457 616.52 336.504C607.991 342.588 579.455 353.105 560.815 357.035C550.832 359.14 550.829 359.134 552.63 348.006C553.739 341.159 552.93 335.052 550.526 332.149C545.214 325.736 532.651 326.19 529.053 332.925ZM215.06 338.196C217.524 341.578 219.488 351.416 219.488 360.391V376.511L174.989 378.551C120.789 381.035 64.0796 380.787 43.0508 377.978L27.4368 375.892L28.3424 361.827C29.4666 344.362 36.7708 336.466 54.6207 333.426C61.9967 332.165 100.117 331.358 139.333 331.63C205.998 332.093 210.919 332.518 215.06 338.196ZM892.449 333.573L839.362 335.252L839.624 347.766C840.046 367.915 844.639 397.492 848.012 401.772C850.263 404.628 856.656 405.16 871.008 403.686L890.888 401.647V427.536H866.108C837.694 427.536 825.309 431.121 825.309 439.345C825.309 450.879 831.227 452.616 863.382 450.504L894.011 448.492V456.529C894.011 474.817 895.25 474.46 831.683 474.46C775.913 474.46 772.646 474.798 762.575 481.596C751.346 489.176 745.028 501.717 748.229 510.069C750.856 516.93 766.957 516.604 788.257 509.262C819.716 498.423 849.711 494.878 908.063 495.116C959.602 495.326 966.74 496.055 993.94 503.894C1010.26 508.599 1029.6 513.194 1036.93 514.105C1049.28 515.644 1051.17 514.846 1062.94 503.049C1082.52 483.435 1079.68 479.569 1043.87 477.157C1027.57 476.059 992.806 475.001 966.615 474.811L918.993 474.46V446.531L949.402 445.637C976.296 444.845 979.946 444.06 980.939 438.861C982.682 429.735 975.946 427.637 944.756 427.583C913.597 427.533 913.113 427.208 917.837 409.549C919.411 403.664 921.875 402.51 932.864 402.51C942.489 402.51 947.751 400.624 952.507 395.472C959.161 388.264 968.957 359.803 968.957 347.681C968.957 339.257 959.517 330.341 951.535 331.226C948.238 331.596 921.647 332.65 892.449 333.573ZM937.361 352.164C940.403 354.094 941.071 358.133 939.625 365.847C937.127 379.186 933.242 380.512 896.462 380.568C872.726 380.606 868.835 379.84 866.015 374.563C861.577 366.254 861.952 353.315 866.686 351.401C873.466 348.66 932.849 349.301 937.361 352.164ZM475.557 377.484H447.452C418.529 377.484 416.374 376.383 422.579 364.764C425.361 359.559 429.29 358.714 450.684 358.714H475.557V377.484ZM214.548 401.281C221.699 404.027 221.518 437.597 214.32 443.578C210.223 446.978 191.833 447.87 125.648 447.87C27.8334 447.87 28.9982 448.211 28.9982 419.459C28.9982 406.386 30.1287 402.673 34.4631 401.537C42.8072 399.354 208.918 399.116 214.548 401.281ZM412.255 446.303C400.857 455.281 379.219 508.871 386.992 508.871C390.63 508.871 432.069 473.616 435.101 467.938C439.679 459.37 438.667 450.933 432.372 445.227C424.996 438.538 421.898 438.704 412.255 446.303ZM613.222 447.592C609.331 451.74 606.627 457.261 607.211 459.861C607.798 462.46 618.112 472.43 630.135 482.018C650.346 498.138 659.817 502.968 659.789 497.14C659.767 492.26 642.223 449.91 638.229 445.089C632.199 437.813 621.379 438.895 613.222 447.592ZM481.506 449.043C474.87 454.43 474.789 455.24 478.855 475.734C481.162 487.361 484.878 499.22 487.111 502.089C490.877 506.928 491.496 506.885 495.674 501.482C500.461 495.288 504.958 467.906 503.172 455.806C501.663 445.58 490.19 442.001 481.506 449.043ZM547.34 450.019C542.822 460.205 553.033 500.603 560.481 502.008C567.454 503.325 573.013 483.094 571.742 461.024C570.827 445.173 570.533 444.717 560.675 443.763C552.587 442.981 549.904 444.241 547.34 450.019Z" fill="black"/>
</svg>
