<svg width="345" height="93" viewBox="0 0 345 93" fill="none" xmlns="http://www.w3.org/2000/svg">
<path fill-rule="evenodd" clip-rule="evenodd" d="M132.592 7.85673C125.988 14.1627 124.508 16.1037 124.967 17.8577C125.902 21.4327 128.472 21.9757 142.962 21.6587C162.771 21.2257 167.112 18.4667 161.921 9.60974C158.73 4.16474 156.887 2.64374 154.426 3.42474C151.509 4.35174 151.151 6.52774 153.438 9.43574C154.559 10.8617 155.249 12.6247 154.969 13.3537C154.378 14.8937 148.991 15.9427 141.595 15.9587C133.833 15.9747 133.818 14.1037 141.547 9.97674C143.758 8.79674 144.888 7.39074 145.108 5.54774C145.445 2.72674 143.844 -0.0522538 141.914 0.000746212C141.293 0.0177462 137.099 3.55273 132.592 7.85673ZM286.506 2.52774C284.569 3.88474 284.46 4.64574 285 12.9807L285.582 21.9697H269.902C253.143 21.9697 248.44 22.9457 246.346 26.8577C245.74 27.9897 244.733 32.5307 244.109 36.9507C242.764 46.4567 243.735 49.9697 247.708 49.9697C251.562 49.9697 253.286 46.5127 253.286 38.7827C253.286 33.0467 253.587 31.8787 255.301 30.9617C260.184 28.3487 296.253 27.1077 313.772 28.9507C323.949 30.0207 324.83 30.6687 325.876 37.8547C326.994 45.5367 329.213 50.1228 331.641 49.7728C334.91 49.2998 336.438 45.2847 335.75 38.9697C334.638 28.7487 333.619 26.3587 329.527 24.3797C326.074 22.7097 312.824 21.3377 297.392 21.0507L292.999 20.9697L293.654 13.9247C294.343 6.50574 293.589 3.73775 290.418 2.03975C289.124 1.34775 287.989 1.48974 286.506 2.52774ZM169.29 13.2197C169.293 20.6507 169.68 23.1037 171.259 25.6927C173.671 29.6497 176.376 30.4527 187.33 30.4617C197.343 30.4707 200.46 29.0037 202.305 23.4127C203.983 18.3277 202.613 17.6187 196.735 20.5277C191.379 23.1787 183.04 24.6267 178.989 23.6097C176.48 22.9797 174.988 19.9087 175.961 17.3737C176.313 16.4567 178.112 15.9547 181.143 15.9257C183.697 15.9017 188.036 15.1147 190.786 14.1757C196.516 12.2207 197.582 9.78875 194.418 5.88875L192.456 3.46974L190.121 5.60673C187.376 8.11873 179.992 11.9697 177.919 11.9697C176.958 11.9697 176.651 11.2887 177.005 9.93674C177.692 7.30874 174.685 3.96974 171.631 3.96974C169.34 3.96974 169.286 4.18174 169.29 13.2197ZM34.373 6.36474C33.736 7.13174 32.798 10.3247 32.288 13.4597C31.777 16.5947 30.556 20.8047 29.573 22.8147L27.786 26.4697L19.286 26.3657C14.611 26.3087 9.619 25.9317 8.193 25.5287C6.208 24.9687 4.942 25.3617 2.8 27.2047L0 29.6117L1.04401 52.8158C2.31001 80.9438 2.571 81.6907 10.635 80.3357C17.139 79.2427 59.783 79.1997 67.786 80.2787C77.596 81.6007 77.66 81.4847 78.44 60.8017C78.799 51.2687 79.421 40.6957 79.821 37.3057C80.497 31.5777 80.371 30.9637 78.053 28.6457L75.557 26.1497L55.422 26.7107C44.347 27.0187 35.286 26.9877 35.286 26.6407C35.286 26.2937 37.084 23.6387 39.282 20.7397C44.196 14.2577 44.419 11.1007 40.209 7.55874C36.676 4.58574 35.97 4.44074 34.373 6.36474ZM306.385 10.1267C303.03 12.9637 300.286 15.6637 300.286 16.1267C300.286 18.0917 314.815 15.3077 318.036 12.7267C320.857 10.4657 318.219 4.96974 314.313 4.96974C313.307 4.96974 309.739 7.29074 306.385 10.1267ZM261.941 7.23074C259.392 9.09674 260.134 13.1547 263.286 14.5887C264.661 15.2137 268.599 15.9987 272.036 16.3327C279.903 17.0957 280.286 15.6077 273.502 10.6277C267.714 6.37874 264.425 5.41274 261.941 7.23074ZM128.953 27.6367C128.586 28.0027 128.286 31.8887 128.286 36.2707C128.286 46.2767 127.041 50.4428 122.1 56.9718C118.014 62.3698 117.634 64.5297 120.458 66.3087C123.193 68.0307 126.97 65.5427 130.02 60.0117C133.201 54.2437 134.731 53.6757 145.786 54.1617L152.786 54.4697L153.092 57.6147C153.446 61.2637 156.297 64.2867 158.564 63.4167C161.024 62.4727 161.239 60.7627 160.19 50.5077C159.274 41.5547 159.579 38.1057 161.755 32.7967C162.189 31.7367 161.68 30.3637 160.363 29.0467C158.453 27.1367 157.13 26.9697 143.953 26.9697C136.069 26.9697 129.319 27.2697 128.953 27.6367ZM151.086 34.1697C154.041 37.1247 152.419 37.9697 143.786 37.9697C136.21 37.9697 135.286 37.7707 135.286 36.1367C135.286 35.1277 135.586 34.0027 135.953 33.6367C137.128 32.4607 149.824 32.9077 151.086 34.1697ZM169.417 34.7257C168.9 35.6917 168.727 40.4847 169.032 45.3787C169.515 53.1257 169.923 54.6477 172.186 57.1587C175.572 60.9157 182.838 62.8617 196.394 63.6427C206.255 64.2117 207.148 64.1078 209.086 62.1698C211.314 59.9418 214.026 52.3757 212.973 51.3237C212.625 50.9757 209.716 51.4277 206.508 52.3277C199.951 54.1667 183.832 55.5748 180.086 54.6348C177.713 54.0388 175.286 50.4007 175.286 47.4377C175.286 46.2807 176.436 46.1207 181.186 46.6167C187.255 47.2517 199.772 45.5097 202.036 43.7157C203.752 42.3557 203.604 38.8687 201.716 36.1737C200.15 33.9367 200.142 33.9367 197.426 35.8697C194.695 37.8147 185.557 41.1767 179.588 42.4327C176.391 43.1057 176.39 43.1037 176.967 39.5467C177.322 37.3577 177.063 35.4057 176.293 34.4777C174.592 32.4277 170.569 32.5727 169.417 34.7257ZM68.868 36.4107C69.657 37.4917 70.286 40.6367 70.286 43.5057V48.6587L56.036 49.3107C38.68 50.1047 20.52 50.0257 13.786 49.1277L8.786 48.4607L9.076 43.9647C9.436 38.3817 11.775 35.8577 17.491 34.8857C19.853 34.4827 32.06 34.2247 44.618 34.3117C65.966 34.4597 67.542 34.5957 68.868 36.4107ZM285.786 34.9327L268.786 35.4697L268.87 39.4697C269.005 45.9107 270.476 55.3657 271.556 56.7337C272.277 57.6467 274.324 57.8167 278.92 57.3457L285.286 56.6937V60.8317V64.9697H277.351C268.252 64.9697 264.286 66.1157 264.286 68.7447C264.286 72.4317 266.181 72.9868 276.478 72.3118L286.286 71.6687V74.2377C286.286 80.0837 286.683 79.9697 266.327 79.9697C248.468 79.9697 247.422 80.0777 244.197 82.2507C240.601 84.6737 238.578 88.6827 239.603 91.3527C240.444 93.5457 245.6 93.4417 252.421 91.0947C262.495 87.6297 272.1 86.4967 290.786 86.5727C307.29 86.6397 309.576 86.8727 318.286 89.3787C323.511 90.8827 329.706 92.3517 332.052 92.6427C336.009 93.1347 336.612 92.8797 340.382 89.1087C346.653 82.8387 345.741 81.6027 334.276 80.8317C329.056 80.4807 317.923 80.1427 309.536 80.0817L294.286 79.9697V75.5058V71.0417L304.024 70.7558C312.636 70.5028 313.805 70.2517 314.123 68.5897C314.681 65.6727 312.524 65.0018 302.536 64.9848C292.558 64.9688 292.403 64.8647 293.916 59.2197C294.42 57.3387 295.209 56.9697 298.728 56.9697C301.81 56.9697 303.495 56.3667 305.018 54.7197C307.149 52.4157 310.286 43.3177 310.286 39.4427C310.286 36.7497 307.263 33.8997 304.707 34.1827C303.651 34.3007 295.136 34.6377 285.786 34.9327ZM300.168 40.8757C301.142 41.4927 301.356 42.7837 300.893 45.2497C300.093 49.5137 298.849 49.9377 287.071 49.9557C279.47 49.9677 278.224 49.7228 277.321 48.0358C275.9 45.3798 276.02 41.2437 277.536 40.6317C279.707 39.7557 298.723 39.9607 300.168 40.8757ZM152.286 45.9697V48.9697H143.286C134.024 48.9697 133.334 48.6177 135.321 44.9037C136.212 43.2397 137.47 42.9697 144.321 42.9697H152.286V45.9697ZM68.704 56.5767C70.994 57.4547 70.936 68.1857 68.631 70.0977C67.319 71.1847 61.43 71.4697 40.236 71.4697C8.913 71.4697 9.286 71.5787 9.286 62.3877C9.286 58.2087 9.648 57.0217 11.036 56.6587C13.708 55.9607 66.901 55.8847 68.704 56.5767ZM132.015 70.9687C128.365 73.8387 121.436 90.9697 123.925 90.9697C125.09 90.9697 138.36 79.6998 139.331 77.8848C140.797 75.1458 140.473 72.4487 138.457 70.6247C136.095 68.4867 135.103 68.5397 132.015 70.9687ZM196.37 71.3808C195.124 72.7068 194.258 74.4717 194.445 75.3027C194.633 76.1337 197.936 79.3207 201.786 82.3857C208.258 87.5387 211.291 89.0827 211.282 87.2197C211.275 85.6597 205.657 72.1217 204.378 70.5807C202.447 68.2547 198.982 68.6008 196.37 71.3808ZM154.191 71.8447C152.066 73.5667 152.04 73.8258 153.342 80.3768C154.081 84.0938 155.271 87.8847 155.986 88.8017C157.192 90.3487 157.39 90.3347 158.728 88.6077C160.261 86.6277 161.701 77.8747 161.129 74.0067C160.646 70.7377 156.972 69.5937 154.191 71.8447ZM175.273 72.1568C173.826 75.4128 177.096 88.3267 179.481 88.7757C181.714 89.1967 183.494 82.7297 183.087 75.6747C182.794 70.6077 182.7 70.4618 179.543 70.1568C176.953 69.9068 176.094 70.3098 175.273 72.1568Z" fill="black"/>
</svg>
