<svg width="525" height="78" viewBox="0 0 525 78" fill="none" xmlns="http://www.w3.org/2000/svg">
<path fill-rule="evenodd" clip-rule="evenodd" d="M478.563 1.43056C477.732 2.33128 477.01 5.19643 476.881 8.10165C476.291 21.391 475.423 66.4463 475.719 68.3604C476.231 71.6598 479.131 72.4316 481.43 69.8784C483.139 67.9793 483.422 66.1385 483.724 54.916C483.913 47.8772 484.463 42.1402 484.946 42.1664C485.429 42.1918 488.68 45.206 492.172 48.8638C502.323 59.4966 504.795 61.2935 509.723 61.6158C516.552 62.0618 524.776 58.3342 524.966 54.7081C525.012 53.8313 524.023 53.2278 522.403 53.1428C514.925 52.7509 495.509 43.444 490.451 37.8256C485.153 31.9413 484.156 28.0117 484.869 15.8434C485.356 7.53942 485.17 4.18711 484.121 2.38878C482.478 -0.432109 480.584 -0.758656 478.563 1.43056ZM378.341 2.78419C377.609 3.98553 376.837 7.66219 376.625 10.9556L376.239 16.9436L372.648 16.7554C368.27 16.5259 363.891 18.4434 362.925 21.0134C361.706 24.254 363.694 25.3145 369.377 24.4568C372.177 24.0347 374.674 24.0634 374.925 24.5202C376.895 28.1172 360.122 41.6339 354.08 41.3173C350.482 41.1287 350.763 47.0846 354.459 49.3181C356.501 50.5526 357.156 50.4798 359.614 48.7471C361.162 47.6546 362.845 46.7835 363.352 46.8101C364.976 46.8952 373.489 39.9972 376.391 36.245C377.932 34.2509 379.621 32.6421 380.143 32.6695C380.664 32.6968 384.503 36.5029 388.672 41.1274C393.091 46.0274 397.086 49.5794 398.25 49.6404C401.749 49.8237 410.984 47.2676 412.41 45.7211C413.561 44.4736 413.488 43.9861 411.959 42.7404C410.953 41.9206 409.295 41.2069 408.274 41.1533C404.161 40.9378 391.244 34.0313 387.323 29.9515C385.104 27.6422 383.31 25.3192 383.338 24.7899C383.366 24.2606 384.851 23.8618 386.639 23.9044C398.591 24.1874 400.922 23.5395 400.436 20.0703C400.208 18.4461 399.118 18.1266 392.207 17.6563L384.241 17.1146L384.116 9.93426C384.032 5.07117 383.525 2.423 382.544 1.72971C380.409 0.220903 379.809 0.371724 378.341 2.78419ZM390.858 4.62079C388.948 7.2284 388.788 13.2232 390.609 13.9285C391.253 14.1786 393.058 12.655 394.621 10.5429C396.961 7.37998 397.284 6.32647 396.458 4.56683C395.124 1.72711 392.964 1.74809 390.858 4.62079ZM449.834 8.85517C448.926 9.67377 448.125 11.4453 448.055 12.7924C447.884 16.044 451.401 17.5501 459.237 17.5813C467.141 17.613 467.857 15.6788 461.669 11.0125C456.813 7.35138 452.398 6.54722 449.834 8.85517ZM340.078 9.5139C336.22 13.0528 330.668 16.9396 327.337 18.4333C324.089 19.8893 321.132 21.8753 320.764 22.8463C319.907 25.1086 321.682 27.5108 323.921 27.1215C325.819 26.7903 332.579 31.6618 334.144 34.4876C335.447 36.842 333.002 38.4843 324.745 40.8043C317.378 42.8746 315.624 44.3198 316.978 47.2046C318.296 50.0104 322.244 50.9593 326.407 49.4702C338.612 45.106 362.344 24.1262 362.697 17.3885C362.743 16.5017 359.755 13.5502 356.032 10.8086C352.32 8.07363 349.302 5.47611 349.325 5.03571C349.464 2.38136 346.053 4.03309 340.078 9.5139ZM504.051 16.5141C502.154 18.2773 497.885 20.6371 494.567 21.758C488.951 23.6547 487.177 25.3561 489.289 26.8197C490.646 27.759 504.05 25.4003 508.418 23.4522C514.307 20.8268 515.396 19.2777 513.564 16.1345C511.473 12.5462 508.18 12.677 504.051 16.5141ZM261.415 10.5764C256.451 10.6998 246.544 10.7704 239.398 10.7324C225.102 10.6551 221.806 11.6119 221.581 15.902C221.398 19.4032 223.338 19.9215 233.121 18.9862C237.92 18.5267 242 18.5673 242.44 19.078C242.869 19.5772 243.255 22.241 243.297 24.997L243.373 30.0078L233.508 30.5513C223.586 31.0977 221.798 31.8412 221.57 35.5173C221.424 37.8749 223.791 38.5897 229.229 37.8293C231.845 37.4637 235.907 37.0518 238.255 36.9134C242.418 36.669 242.52 36.7354 242.369 39.6035C241.904 48.4933 229.537 59.0525 212.629 64.9987C205.811 67.3962 204.916 68.5429 207.03 72.1715C209.999 77.2669 217.217 75.2249 231.02 65.3828C236.225 61.6721 244.484 53.4291 247.503 48.9299C247.857 48.4027 255.983 53.3518 259.522 56.25C261.37 57.7628 266.212 62.017 270.283 65.7031C280.219 74.7015 281.156 75.0459 288.972 72.5897C294.11 70.9743 295.4 70.1377 295.738 68.2067C296.125 65.985 295.553 65.6296 287.504 63.0958C277.28 59.8753 266.112 53.6353 256.948 46.0212C250.819 40.9295 248.504 36.8547 251.773 36.9139C259.502 37.0536 269.438 36.4638 270.92 35.7784C272.045 35.2576 272.701 34.0523 272.582 32.7222C272.393 30.6145 271.96 30.5086 261.645 30.0642L250.905 29.6014L251.182 24.3177C251.334 21.4117 251.966 18.7561 252.585 18.4171C253.205 18.077 257.57 17.7611 262.285 17.7138C268.906 17.6482 271.317 17.2168 272.869 15.8191C277.274 11.8532 273.809 10.2677 261.415 10.5764ZM351.935 15.8251C354.436 18.3384 353.687 24.2734 350.888 24.1267C349.188 24.0376 343.501 15.9358 344.314 14.7618C345.361 13.2515 350.021 13.9013 351.935 15.8251ZM136.741 8.54674C135.668 9.72219 135.098 13.3283 134.657 21.7277L134.051 33.2909L123.036 33.3024C109.335 33.3164 105.071 34.3736 103.241 38.2101C102.488 39.7899 102.097 41.7772 102.374 42.6278C103.007 44.5766 107.761 44.8879 112.215 43.2717C116.081 41.8681 127.309 40.2456 127.982 40.9928C129.681 42.8793 115.906 57.8669 109.916 60.6502C103.603 63.5839 95.1209 68.2403 94.4406 69.1469C93.3501 70.5989 95.1653 73.7562 97.9123 75.1859C99.8998 76.2204 101.14 76.1011 104.895 74.5134C107.407 73.4525 109.483 72.1673 109.51 71.659C109.536 71.1497 111.367 69.5433 113.578 68.0901C118.342 64.9571 126.509 56.2846 132.291 48.2192L136.442 42.4285L136.973 45.7809C137.265 47.6247 137.231 49.9892 136.899 51.0342C136.566 52.0792 136.448 55.7852 136.637 59.2688C137.28 71.0786 141.608 73.6607 166.341 76.9897C173.598 77.9668 173.918 77.9155 176.613 75.358C178.144 73.9062 180.267 70.819 181.332 68.4986C184.234 62.1688 182.714 61.3651 174.54 64.9092C168.581 67.4929 166.937 67.7592 159.372 67.3627C153.146 67.0365 149.908 66.3741 147.204 64.8725C143.61 62.8777 143.519 62.6787 143.548 56.8201C143.565 53.5165 144.066 48.3607 144.663 45.3628L145.749 39.9122L157.007 40.4481L168.266 40.9841L171.608 37.9738C176.817 33.2831 175.249 32.6732 158.496 32.8776C150.566 32.9737 143.762 32.7403 143.375 32.3576C142.746 31.7368 142.897 17.2248 143.558 14.763C144.45 11.4392 143.221 8.77918 140.291 7.69433C138.925 7.18918 137.715 7.47926 136.741 8.54674ZM445.55 26.7385C444.837 26.9915 443.534 28.4263 442.655 29.9274C440.112 34.2722 441.912 35.1276 451.886 34.3135C459.08 33.7262 460.383 33.8555 461.67 35.2848C463.018 36.7825 462.973 37.2858 461.171 40.7802C458.004 46.9249 448.237 54.5482 441.76 55.9331C437.534 56.8372 436.11 58.7923 437.509 61.7726C438.616 64.1288 442.322 65.4286 445.923 64.723C449.757 63.9717 462.001 52.2825 466.09 45.4701C468.033 42.2314 470.006 37.7936 470.474 35.6081C471.217 32.1412 471.034 31.4286 469.043 30.0295C466.747 28.4141 448.168 25.8122 445.55 26.7385ZM341.605 24.3912C345.474 27.6592 345.894 29.5037 343.19 31.3417C340.624 33.0858 340.542 33.0454 337.168 28.3644C332.275 21.578 335.188 18.9709 341.605 24.3912ZM160.587 17.5981C159.053 18.7244 156.06 20.5753 153.935 21.7126C148.455 24.6438 148.581 27.0017 154.188 26.4353C160.998 25.7458 167.879 23.582 168.63 21.893C170.764 17.0991 165.267 14.1634 160.587 17.5981ZM112.933 18.5144C110.723 20.7127 111.16 24.2134 113.754 25.0943C114.674 25.4059 118.219 26.1104 121.632 26.6578C129.216 27.8754 129.89 26.4968 124.197 21.4088C119.218 16.9592 115.465 15.9944 112.933 18.5144ZM44.3301 14.4764C43.7969 14.9442 34.0469 15.2233 17.3357 15.2477C7.97213 15.2627 4.32789 15.6495 2.87448 16.785C1.05247 18.2086 0.891558 19.7122 0.316016 40.802C-0.507376 70.9202 -0.139693 72.7319 6.60465 71.7555C16.9815 70.2536 22.2505 70.009 33.8291 70.4926C45.1568 70.9661 46.8872 70.8135 48.4165 69.2033C49.8886 67.6542 50.3456 64.2274 51.4214 46.6997C52.1195 35.3277 52.852 24.3119 53.0507 22.2215C53.4856 17.6299 51.24 14.431 47.4422 14.232C45.9712 14.1549 44.5705 14.2647 44.3301 14.4764ZM43.7095 23.2991C45.064 25.1785 45.0953 37.0214 43.7488 37.9692C42.6997 38.7083 37.9883 38.9361 16.3219 39.2936L7.04718 39.4464L7.58657 32.7084C7.90833 28.6898 8.68616 25.465 9.51222 24.7213C10.2742 24.0352 13.2812 23.1393 16.1936 22.7302C19.1059 22.3221 22.3977 21.8387 23.5088 21.6566C28.3559 20.8652 42.8022 22.0388 43.7095 23.2991ZM387.001 54.258C386.307 54.8825 385.704 56.0626 385.662 56.8815C385.538 59.2412 393.009 72.5134 394.261 72.1585C395.406 71.835 395.967 63.1404 395.121 58.8252C394.217 54.2136 389.806 51.7323 387.001 54.258ZM368.53 54.1712C366.132 55.4044 366.011 59.6058 368.174 66.4604C369.995 72.2296 372.06 75.1306 373.188 73.5024C373.54 72.9941 374.132 68.9135 374.503 64.4358C375.09 57.3598 374.934 56.094 373.314 54.7684C371.131 52.9806 370.9 52.9525 368.53 54.1712ZM347.413 56.5563C346.369 58.5633 346.392 60.3991 347.526 65.8249C349.891 77.1392 351.719 77.0387 354.106 65.4637C355.439 58.9977 355.431 57.9187 354.029 56.197C351.797 53.4555 348.946 53.6105 347.413 56.5563ZM329.216 56.2865C326.807 59.64 324.315 70.6587 325.636 72.1259C326.892 73.5205 328.235 72.213 333.197 64.7565C336.9 59.1916 337.114 58.1825 335.072 55.9135C333.001 53.615 331.048 53.7389 329.216 56.2865ZM44.0331 46.4167C44.766 48.6721 42.7783 60.977 41.5453 61.8236C39.9187 62.94 12.5976 63.8694 10.009 62.8956C7.72483 62.0369 7.38103 60.8392 6.88973 52.0044L6.57369 46.3221L9.91011 45.7709C12.6839 45.3125 26.1016 45.0003 40.4502 45.0603C42.2532 45.0677 43.783 45.6465 44.0331 46.4167Z" fill="black"/>
</svg>
